<svg version="1.1" id="Layer_1" xmlns="http://www.w3.org/2000/svg" xmlns:xlink="http://www.w3.org/1999/xlink" x="0px" y="0px"
	 width="100%" viewBox="0 0 800 140" enable-background="new 0 0 800 198" xml:space="preserve">
<path fill="#FBF8F8" opacity="0.100000" stroke="none" 
	d="
M487.833527,76.000061 
	C487.831024,101.324593 487.843933,126.149124 487.815063,150.973618 
	C487.807922,157.124557 486.384155,158.859299 481.516388,159.012833 
	C476.108887,159.183411 474.214966,157.540359 474.206238,152.005905 
	C474.150452,116.685219 474.149750,81.364342 474.205353,46.043652 
	C474.213806,40.655628 475.993988,38.996506 480.983459,38.991619 
	C485.998718,38.986706 487.735962,40.630234 487.794067,46.010830 
	C487.900177,55.839569 487.830109,65.670212 487.833527,76.000061 
z"/>
<path fill="#F9F8F8" opacity="0.100000" stroke="none" 
	d="
M499.048920,112.999985 
	C499.055450,90.510132 499.037537,68.520233 499.084198,46.530468 
	C499.097229,40.383186 501.472687,38.011101 507.308563,39.211666 
	C509.300690,39.621494 510.945862,42.246578 512.472839,44.088879 
	C512.975952,44.695873 512.635193,46.024281 512.635437,47.022827 
	C512.644287,81.673546 512.661377,116.324280 512.639954,150.974991 
	C512.635864,157.578140 510.793274,159.342834 504.858673,159.027817 
	C500.263153,158.783890 499.042023,156.016479 499.054474,151.982178 
	C499.094086,139.154922 499.056610,126.327408 499.048920,112.999985 
z"/>
<path fill="#FEFDFD" opacity="0.100000" stroke="none" 
	d="
M264.056976,73.000015 
	C264.056030,99.625343 264.071838,125.750687 264.040527,151.875977 
	C264.034027,157.319016 262.418671,158.977737 257.465302,158.995895 
	C252.556625,159.013916 250.862289,157.474609 250.816818,152.470734 
	C250.727600,142.653748 250.782104,132.835419 250.781845,123.017647 
	C250.781158,97.391533 250.760178,71.765381 250.801544,46.139336 
	C250.810760,40.429417 252.475723,38.944107 257.865875,38.984535 
	C262.330414,39.018021 264.097717,41.279144 264.068695,45.542812 
	C264.007507,54.528152 264.054413,63.514233 264.056976,73.000015 
z"/>
<path fill="#FEFEFE" opacity="0.100000" stroke="none" 
	d="
M399.851013,103.999954 
	C399.852325,84.525726 399.829956,65.551460 399.868225,46.577305 
	C399.880554,40.468876 401.227570,39.011425 406.466187,39.012154 
	C411.610168,39.012871 413.080353,40.621014 413.084381,46.574570 
	C413.108032,81.527176 413.110107,116.479797 413.095551,151.432419 
	C413.093109,157.360107 411.605804,158.993820 406.470032,158.991516 
	C401.212799,158.989151 399.881989,157.531876 399.868469,151.436279 
	C399.833801,135.790909 399.853088,120.145409 399.851013,103.999954 
z"/>
<path fill="#FEFEFE" opacity="0.100000" stroke="none" 
	d="
M562.161621,52.045223 
	C562.154480,85.494041 562.159119,118.449699 562.132202,151.405334 
	C562.127380,157.336700 560.872253,158.826843 556.059570,158.988403 
	C550.706482,159.168091 548.911560,157.494476 548.907715,151.958939 
	C548.882874,116.673119 548.887878,81.387268 548.916931,46.101444 
	C548.921448,40.668579 550.537109,39.022095 555.510193,39.014275 
	C560.625000,39.006233 562.007751,40.464882 562.135864,46.059628 
	C562.177795,47.889683 562.155457,49.721210 562.161621,52.045223 
z"/>
<path fill="#FAF9F8" opacity="0.100000" stroke="none" 
	d="
M636.878052,121.000046 
	C636.875000,129.327759 636.926758,137.155991 636.849792,144.982986 
	C636.797974,150.259842 635.010864,152.012512 630.047119,151.995422 
	C625.062439,151.978256 623.294678,150.285751 623.287109,144.952316 
	C623.243286,114.307808 623.244568,83.663170 623.297180,53.018692 
	C623.306335,47.670425 625.062683,46.014191 630.079407,46.015976 
	C635.069092,46.017746 636.842163,47.729618 636.854004,53.048538 
	C636.903870,75.532280 636.876892,98.016190 636.878052,121.000046 
z"/>
<path fill="#F9F9F8" opacity="0.100000" stroke="none" 
	d="
M449.352478,94.999840 
	C449.353210,83.175987 449.311554,71.851913 449.371796,60.528381 
	C449.403076,54.649761 450.978149,52.999153 456.171265,52.993332 
	C461.275970,52.987610 462.918152,54.753811 462.923309,60.542706 
	C462.946167,86.187836 462.946838,111.833015 462.918884,137.478134 
	C462.912567,143.282547 461.280792,145.022934 456.157776,145.013519 
	C450.981567,145.004013 449.388367,143.336670 449.365875,137.464676 
	C449.312256,123.476585 449.350952,109.488144 449.352478,94.999840 
z"/>
<path fill="#FDFCFC" opacity="0.100000" stroke="none" 
	d="
M612.138428,59.008797 
	C612.092712,60.081360 612.046997,61.153923 611.999512,63.086792 
	C612.017761,89.616386 612.037842,115.285675 612.057861,140.954956 
	C610.103333,145.455811 606.250122,145.595276 602.377502,144.732254 
	C598.345276,143.833633 598.499146,140.320724 598.499939,137.100510 
	C598.506592,111.684868 598.427368,86.268539 598.640564,60.854656 
	C598.661194,58.399910 599.833008,54.738827 601.618225,53.784187 
	C604.722473,52.124191 608.761719,51.967705 611.623840,56.362865 
	C611.964722,57.647015 612.051514,58.327908 612.138428,59.008797 
z"/>
<path fill="#FDFDFD" opacity="0.100000" stroke="none" 
	d="
M697.941589,128.982239 
	C697.943604,105.692398 697.921814,82.899063 697.963806,60.105850 
	C697.974976,54.055454 701.885193,51.136864 707.460754,53.430725 
	C709.123840,54.114910 711.021179,56.771175 711.036255,58.538948 
	C711.265015,85.489479 711.203979,112.442543 711.196533,139.395020 
	C711.195312,143.791290 708.473022,144.985291 704.628357,145.005722 
	C700.779663,145.026169 698.059570,143.841080 697.986206,139.460754 
	C697.930481,136.134140 697.953613,132.806168 697.941589,128.982239 
z"/>
<path fill="#FCF8F8" opacity="0.100000" stroke="none" 
	d="
M313.668304,134.857651 
	C311.247589,138.660919 307.498810,138.619385 303.922089,137.636810 
	C300.035675,136.569138 300.273773,132.962692 300.272034,129.777557 
	C300.260773,109.167801 300.146637,88.556503 300.415100,67.950256 
	C300.448273,65.404099 301.896484,61.698925 303.841125,60.633270 
	C306.701050,59.066036 310.688171,59.020512 313.451782,63.341965 
	C313.725342,87.645676 313.696838,111.251663 313.668304,134.857651 
z"/>
<path fill="#FFFEFD" opacity="0.100000" stroke="none" 
	d="
M573.751221,77.008041 
	C573.768494,72.853317 573.735229,69.195763 573.815613,65.540695 
	C573.910706,61.220257 576.546692,59.950981 580.441223,59.982430 
	C584.338135,60.013897 587.009521,61.379440 587.017944,65.644737 
	C587.062134,87.917908 587.067139,110.191338 587.001953,132.464417 
	C586.989380,136.754761 584.192688,137.980576 580.332825,138.023682 
	C576.038879,138.071625 573.763794,136.295410 573.766113,131.859940 
	C573.775391,113.742065 573.758423,95.624184 573.751221,77.008041 
z"/>
<path fill="#F9F9F8" opacity="0.100000" stroke="none" 
	d="
M325.121338,114.978470 
	C325.125824,101.163185 325.107452,87.844093 325.145660,74.525162 
	C325.162140,68.774300 326.822388,66.992348 331.928345,66.992088 
	C337.052216,66.991829 338.700043,68.714165 338.718201,74.528152 
	C338.769226,90.843758 338.769043,107.159706 338.721069,123.475319 
	C338.704071,129.253464 337.026855,131.005875 331.915955,131.006531 
	C326.814270,131.007187 325.201904,129.226501 325.136688,123.466064 
	C325.106506,120.802567 325.125000,118.138519 325.121338,114.978470 
z"/>
<path fill="#FEFDFD" opacity="0.100000" stroke="none" 
	d="
M275.553314,98.999725 
	C275.556305,90.349892 275.499176,82.199448 275.583374,74.050461 
	C275.640472,68.523506 277.180847,66.999580 282.265717,67.008774 
	C287.212433,67.017708 288.967682,68.772888 288.980255,74.056618 
	C289.019867,90.688812 289.021820,107.321243 288.978333,123.953430 
	C288.964508,129.242996 287.199615,130.998688 282.261719,130.994675 
	C277.166077,130.990509 275.631958,129.467407 275.578583,123.948982 
	C275.499847,115.799911 275.555176,107.649551 275.553314,98.999725 
z"/>
<path fill="#FEFDFD" opacity="0.100000" stroke="none" 
	d="
M686.437927,81.027321 
	C686.436951,95.494041 686.465088,109.466194 686.421692,123.438118 
	C686.403015,129.455017 684.979614,130.987228 679.748108,130.994644 
	C674.631470,131.001923 673.026611,129.268494 673.016174,123.462700 
	C672.987000,107.162018 672.988403,90.861229 673.015015,74.560547 
	C673.024536,68.739395 674.602905,67.021683 679.730042,67.008812 
	C684.954224,66.995697 686.340332,68.543144 686.432678,74.544693 
	C686.463379,76.540230 686.437805,78.536644 686.437927,81.027321 
z"/>
<path fill="#FEFDFD" opacity="0.100000" stroke="none" 
	d="
M537.304688,73.336479 
	C537.312012,90.435974 537.343323,107.073441 537.296387,123.710701 
	C537.279602,129.663559 535.200745,131.449829 529.391785,130.998093 
	C526.018250,130.735733 524.065247,129.014679 524.052979,125.662979 
	C523.987671,107.861267 523.973083,90.058929 524.063538,72.257431 
	C524.082153,68.593857 526.434143,67.098869 529.977539,66.985077 
	C534.192383,66.849716 537.276245,67.900635 537.304688,73.336479 
z"/>
<path fill="#FDFCFC" opacity="0.100000" stroke="none" 
	d="
M725.795166,81.524582 
	C734.914246,80.437096 736.097961,81.498940 736.092773,90.225220 
	C736.088684,97.041382 736.025879,103.858261 736.105469,110.673462 
	C736.157043,115.087448 734.050903,117.026978 729.717651,117.012642 
	C724.753662,116.996216 722.911804,115.501236 722.848083,110.685783 
	C722.744690,102.873512 722.656250,95.052986 722.937866,87.249527 
	C723.005432,85.379128 724.554138,83.562157 725.795166,81.524582 
z"/>
<path fill="#FDFCFC" opacity="0.100000" stroke="none" 
	d="
M431.895203,116.991882 
	C426.583771,117.259949 424.556000,114.838120 424.630371,110.060036 
	C424.746826,102.577309 424.725128,95.090919 424.648224,87.607254 
	C424.601074,83.015388 426.706146,80.901901 431.308655,80.982025 
	C436.165466,81.066566 437.925690,82.596230 437.977173,87.521080 
	C438.057098,95.171074 437.950348,102.822914 438.013611,110.473213 
	C438.046265,114.419144 436.585327,116.889854 431.895203,116.991882 
z"/>
<path fill="#FBF8F8" opacity="0.100000" stroke="none" 
	d="
M648.129883,93.585609 
	C648.918030,87.860191 652.774841,87.659760 656.796570,88.081017 
	C660.839966,88.504555 661.752197,91.427177 661.726379,94.924263 
	C661.706726,97.588875 661.782166,100.255333 661.710693,102.918159 
	C661.566284,108.299034 659.927612,109.985977 654.961670,110.009346 
	C649.955750,110.032898 648.251526,108.329063 648.122925,103.017387 
	C648.050415,100.021301 648.110229,97.022018 648.129883,93.585609 
z"/>
<path fill="#FDFBFA" opacity="0.100000" stroke="none" 
	d="
M363.503784,96.332123 
	C363.503479,98.772987 363.533936,100.769264 363.491119,102.763977 
	C363.367889,108.502983 361.809814,110.095802 356.472931,110.000427 
	C351.610321,109.913528 350.131683,108.240082 350.050262,102.675804 
	C350.018646,100.514404 350.036316,98.352150 350.043365,96.190331 
	C350.064392,89.761246 351.428406,88.068031 356.618744,88.012505 
	C362.033905,87.954590 363.215240,89.306183 363.503784,96.332123 
z"/>
<path fill="#FDFBFA" opacity="0.100000" stroke="none" 
	d="
M212.530945,89.223495 
	C213.187576,95.303459 213.961655,101.188766 213.491974,106.973076 
	C213.395172,108.165253 208.627869,109.790092 206.074615,109.687561 
	C204.351181,109.618347 201.620987,107.069801 201.297836,105.277496 
	C200.571030,101.246490 200.768707,96.970078 201.133911,92.841644 
	C201.551102,88.125465 205.658981,86.821243 212.530945,89.223495 
z"/>
<path fill="#FDFBFA" opacity="0.100000" stroke="none" 
	d="
M225.902756,100.871597 
	C225.902191,98.742188 225.883698,97.082161 225.905685,95.422661 
	C225.983185,89.571930 227.444321,87.979515 232.672012,88.017693 
	C237.840118,88.055443 239.146622,89.575096 239.190598,95.640968 
	C239.207443,97.964523 239.202896,100.288475 239.182053,102.612007 
	C239.130966,108.302299 237.778198,109.888840 232.919342,109.993843 
	C227.550186,110.109871 226.070801,108.601135 225.906570,102.834984 
	C225.892410,102.337433 225.903839,101.839149 225.902756,100.871597 
z"/>
<path fill="#FDFBFA" opacity="0.100000" stroke="none" 
	d="
M750.711182,109.521667 
	C749.432007,107.496597 748.055664,105.745392 747.743652,103.821587 
	C747.296814,101.066078 747.603943,98.184273 747.631104,95.356789 
	C747.686829,89.549042 749.182678,87.961670 754.492737,88.013443 
	C759.381470,88.061104 760.911072,89.748428 760.998291,95.230522 
	C761.027405,97.059845 761.010376,98.889946 761.008911,100.719696 
	C761.002075,109.467552 759.891174,110.474709 750.711182,109.521667 
z"/>
<path fill="#FDFBFA" opacity="0.100000" stroke="none" 
	d="
M388.247620,94.345825 
	C388.244598,98.121109 388.313324,101.443367 388.176544,104.757133 
	C388.010468,108.779144 385.510895,110.035652 381.814972,110.029930 
	C378.025116,110.024063 375.182190,108.987373 375.000153,104.648766 
	C374.861115,101.335312 375.013397,98.010551 374.924103,94.693848 
	C374.819092,90.794647 376.232788,88.274231 380.472076,88.011162 
	C384.759857,87.745079 388.213593,88.536583 388.247620,94.345825 
z"/>
</svg>